<?xml version="1.0" encoding="iso-8859-1"?>
<!-- Generator: Adobe Illustrator 16.0.0, SVG Export Plug-In . SVG Version: 6.00 Build 0)  -->
<!DOCTYPE svg PUBLIC "-//W3C//DTD SVG 1.1//EN" "http://www.w3.org/Graphics/SVG/1.1/DTD/svg11.dtd">
<svg xmlns="http://www.w3.org/2000/svg" xmlns:xlink="http://www.w3.org/1999/xlink" version="1.1" id="Capa_1" x="0px" y="0px" width="512px" height="512px" viewBox="0 0 753.23 753.23" style="enable-background:new 0 0 753.23 753.23;" xml:space="preserve">
<g>
	<g id="location-pin_x28_alt_x29_">
		<g>
			<path d="M682.615,301.292C682.615,134.899,545.621,0,376.615,0c-169.006,0-306,134.899-306,301.292     c0,77.277,29.8,147.539,78.383,200.854h-1.883c0,0,114.515,138.383,182.423,227.547l4.943,1.577     c9.18,13.252,24.621,21.961,42.134,21.961c16.171,0,30.436-7.556,39.78-19.137l7.297-4.401     c67.743-88.929,182.423-227.547,182.423-227.547h-1.883C652.815,448.831,682.615,378.569,682.615,301.292z M376.615,502.146     c-112.655,0-204.008-89.917-204.008-200.854s91.353-200.854,204.008-200.854s204.008,89.917,204.008,200.854     S489.271,502.146,376.615,502.146z" fill="#D80027"/>
		</g>
	</g>
</g>
<g>
</g>
<g>
</g>
<g>
</g>
<g>
</g>
<g>
</g>
<g>
</g>
<g>
</g>
<g>
</g>
<g>
</g>
<g>
</g>
<g>
</g>
<g>
</g>
<g>
</g>
<g>
</g>
<g>
</g>
</svg>
